<?xml version="1.0" encoding="utf-8"?>
<!-- Generator: Adobe Illustrator 27.8.1, SVG Export Plug-In . SVG Version: 6.00 Build 0)  -->
<svg version="1.1" id="Layer_1" xmlns="http://www.w3.org/2000/svg" xmlns:xlink="http://www.w3.org/1999/xlink" x="0px" y="0px"
	 width="583.67px" height="430.67px" viewBox="0 0 583.67 430.67" style="enable-background:new 0 0 583.67 430.67;"
	 xml:space="preserve">
<style type="text/css">
	.st0{fill:#A58250;}
	.st1{fill:#484F57;}
</style>
<g>
	<g>
		<polygon class="st0" points="366.74,133.89 366.74,133.89 366.73,133.9 		"/>
		<polygon class="st0" points="323.2,176.49 323.2,176.49 323.19,176.5 		"/>
		<polygon class="st0" points="318.54,182.09 318.53,182.1 318.52,182.11 		"/>
		<path class="st0" d="M354.98,115.13c-5.61-2.88-11.99-4.51-18.72-4.51c-5.38,0-10.53,1.04-15.24,2.92
			c-3.3,1.32-6.38,3.05-9.19,5.13c-1.25-3.33-1.94-6.93-1.94-10.71c0-3.78,0.69-7.38,1.94-10.71c2.81,2.08,5.89,3.82,9.19,5.13
			c4.71,1.88,9.86,2.92,15.24,2.92c6.73,0,13.11-1.63,18.72-4.51c5.62-2.88,10.48-7.01,14.22-12.03l1.54-2.06l-1.62-2
			c-3.39-4.2-7.68-7.64-12.59-10.04c-4.9-2.4-10.42-3.74-16.24-3.74c-4.62,0-9.05,0.85-13.14,2.4c1.55-4.09,2.4-8.52,2.4-13.14
			c0-5.81-1.34-11.33-3.74-16.24c-2.4-4.9-5.84-9.2-10.04-12.59l-2-1.61l-2.06,1.54c-5.02,3.74-9.15,8.6-12.03,14.22
			c-2.88,5.61-4.51,11.99-4.51,18.72c0,5.38,1.04,10.53,2.92,15.24c1.32,3.3,3.05,6.38,5.14,9.19c-3.33,1.25-6.93,1.94-10.71,1.94
			c-3.78,0-7.38-0.69-10.71-1.94c2.08-2.81,3.82-5.89,5.14-9.19c1.89-4.71,2.92-9.86,2.92-15.24c0-6.73-1.63-13.11-4.51-18.72
			c-2.88-5.62-7.01-10.48-12.03-14.22l-2.06-1.54l-2,1.61c-4.2,3.39-7.64,7.68-10.04,12.59c-2.4,4.9-3.74,10.42-3.74,16.24
			c0,4.62,0.85,9.05,2.4,13.14c-4.09-1.55-8.52-2.4-13.14-2.4c-5.81,0-11.33,1.34-16.24,3.74c-4.9,2.4-9.2,5.84-12.59,10.04l-1.61,2
			l1.54,2.06c3.74,5.02,8.61,9.15,14.22,12.03c5.61,2.88,11.99,4.51,18.72,4.51c5.38,0,10.53-1.04,15.24-2.92
			c3.3-1.32,6.38-3.05,9.19-5.13c1.25,3.33,1.94,6.93,1.94,10.71c0,3.78-0.69,7.38-1.94,10.71c-2.81-2.08-5.89-3.82-9.19-5.13
			c-4.71-1.89-9.87-2.92-15.24-2.92c-6.73,0-13.11,1.63-18.72,4.51c-5.62,2.88-10.48,7.01-14.22,12.03l-1.53,2.06l1.61,2
			c0.75,0.93,1.55,1.82,2.37,2.66c1.7,1.74,3.57,3.31,5.59,4.69c5.94,4.06,13.14,6.44,20.86,6.44c4.62,0,9.05-0.85,13.14-2.4
			c-1.55,4.09-2.4,8.52-2.4,13.14c0,7.67,2.34,14.83,6.35,20.74c1.37,2.02,2.93,3.9,4.66,5.61c0.88,0.87,1.8,1.7,2.77,2.48l2,1.61
			l2.06-1.53c5.02-3.74,9.15-8.61,12.03-14.22c2.88-5.62,4.51-11.99,4.51-18.73c0-5.38-1.04-10.53-2.92-15.24
			c-1.32-3.3-3.05-6.38-5.13-9.19c3.33-1.25,6.93-1.94,10.71-1.94c3.78,0,7.38,0.69,10.71,1.94c-2.08,2.81-3.82,5.89-5.13,9.19
			c-1.89,4.71-2.92,9.86-2.92,15.24c0,6.73,1.63,13.11,4.51,18.72c2.88,5.62,7.01,10.48,12.03,14.22l2.06,1.53l2-1.61
			c0.96-0.77,1.88-1.6,2.76-2.47c1.73-1.7,3.3-3.58,4.67-5.6c4.01-5.91,6.36-13.07,6.36-20.75c0-4.62-0.85-9.05-2.4-13.14
			c4.09,1.55,8.52,2.4,13.14,2.4c7.72,0,14.92-2.37,20.85-6.43c2.02-1.38,3.89-2.94,5.59-4.69c0.84-0.85,1.63-1.74,2.38-2.66l1.62-2
			l-1.54-2.06C365.45,122.15,360.59,118.02,354.98,115.13z M305.57,48.54c2.01-3.91,4.74-7.39,8.03-10.26
			c2.56,2.46,4.69,5.37,6.26,8.59c1.97,4.03,3.07,8.54,3.07,13.33c0,4.18-0.84,8.15-2.36,11.76c-1.52,3.62-3.72,6.88-6.44,9.63
			l2.39,2.37l2.37,2.39c2.75-2.72,6.01-4.92,9.63-6.44c3.62-1.52,7.58-2.36,11.76-2.36c4.79,0,9.31,1.1,13.33,3.07
			c3.22,1.57,6.13,3.7,8.59,6.26c-2.87,3.28-6.35,6.02-10.26,8.03c-4.71,2.41-10.04,3.78-15.7,3.78c-4.52,0-8.83-0.87-12.78-2.45
			c-3.95-1.58-7.54-3.87-10.62-6.72l0,0c-0.66-0.61-1.28-1.23-1.88-1.88l-0.01-0.01l0,0c-2.85-3.07-5.14-6.67-6.72-10.61
			c-1.58-3.95-2.45-8.26-2.45-12.78C301.8,58.57,303.16,53.25,305.57,48.54z M261.57,96.25c-3.95,1.58-8.26,2.45-12.78,2.45
			c-5.67,0-10.99-1.36-15.7-3.78c-3.91-2.01-7.39-4.74-10.26-8.03c2.46-2.56,5.37-4.69,8.59-6.27c4.03-1.97,8.54-3.07,13.33-3.07
			c4.18,0,8.16,0.84,11.78,2.36c3.62,1.52,6.89,3.73,9.64,6.46l2.37-2.39l2.39-2.37c-2.73-2.75-4.93-6.02-6.45-9.64
			c-1.52-3.62-2.36-7.59-2.36-11.78c0-4.79,1.1-9.31,3.07-13.33c1.57-3.22,3.7-6.13,6.26-8.59c3.28,2.87,6.02,6.35,8.03,10.26
			c2.41,4.71,3.78,10.04,3.78,15.7c0,4.53-0.87,8.83-2.45,12.78c-1.58,3.95-3.87,7.54-6.72,10.61l-0.01,0.01
			c-0.59,0.65-1.22,1.27-1.88,1.88l-0.01,0.01C269.11,92.38,265.52,94.67,261.57,96.25z M279.47,167.4
			c-2.01,3.91-4.74,7.39-8.02,10.25c-0.09-0.09-0.19-0.18-0.29-0.27l-0.01-0.01c-1.42-1.4-2.7-2.94-3.83-4.61l0,0
			c-3.29-4.86-5.21-10.71-5.21-17.03c0-4.18,0.84-8.16,2.36-11.77c1.52-3.62,3.72-6.89,6.45-9.64l-2.2-2.18l-2.56-2.58v0
			c-2.75,2.73-6.02,4.93-9.64,6.45c-3.62,1.52-7.59,2.36-11.77,2.36c-6.37,0-12.25-1.95-17.13-5.28l0,0
			c-1.66-1.13-3.19-2.42-4.59-3.85l0,0c-0.06-0.07-0.12-0.13-0.19-0.2c2.87-3.28,6.34-6.02,10.25-8.02
			c4.71-2.41,10.04-3.78,15.7-3.78c4.53,0,8.83,0.87,12.79,2.45c3.95,1.58,7.54,3.87,10.62,6.72l0.01,0.01l0,0
			c0.65,0.6,1.28,1.23,1.88,1.88l0,0c2.85,3.07,5.14,6.67,6.72,10.62c1.58,3.95,2.45,8.26,2.45,12.78
			C283.24,157.37,281.88,162.7,279.47,167.4z M279.38,121.11c1.55-4.09,2.4-8.52,2.4-13.14c0-4.62-0.85-9.05-2.4-13.14
			c4.09,1.55,8.52,2.41,13.14,2.4c4.62,0,9.05-0.85,13.14-2.4c-1.55,4.09-2.4,8.52-2.4,13.14c0,4.62,0.85,9.05,2.4,13.14
			c-4.09-1.55-8.52-2.4-13.14-2.4C287.9,118.71,283.47,119.56,279.38,121.11z M362.01,129.25L362.01,129.25
			c-1.4,1.43-2.94,2.72-4.6,3.85l0,0c-4.88,3.33-10.76,5.27-17.12,5.27c-4.18,0-8.16-0.84-11.78-2.36
			c-3.62-1.52-6.89-3.73-9.64-6.46l-2.57,2.59l-2.19,2.17c2.73,2.75,4.93,6.02,6.45,9.64c1.52,3.62,2.36,7.59,2.36,11.78
			c0,6.32-1.92,12.17-5.22,17.04l0,0c-1.12,1.66-2.41,3.2-3.83,4.6l-0.01,0.01l-0.01,0.01c-0.09,0.09-0.18,0.17-0.27,0.26
			c-3.28-2.87-6.02-6.34-8.02-10.25c-2.41-4.71-3.78-10.04-3.78-15.7c0-4.53,0.87-8.83,2.45-12.78c1.58-3.95,3.87-7.54,6.72-10.62
			l0,0c0.6-0.65,1.23-1.28,1.88-1.88l0,0c3.07-2.85,6.67-5.14,10.62-6.72c3.95-1.58,8.26-2.45,12.78-2.45
			c5.67,0,10.99,1.36,15.7,3.78c3.91,2.01,7.39,4.74,10.25,8.02C362.14,129.11,362.08,129.18,362.01,129.25L362.01,129.25z
			 M314.21,134.27L314.21,134.27L314.21,134.27C314.21,134.27,314.21,134.27,314.21,134.27z"/>
		<polygon class="st0" points="361.15,138.58 361.14,138.58 361.14,138.58 		"/>
		<polygon class="st0" points="266.5,182.1 266.5,182.1 266.49,182.09 		"/>
		<polygon class="st0" points="261.83,176.49 261.83,176.49 261.83,176.49 		"/>
		<polygon class="st0" points="218.29,133.89 218.29,133.89 218.29,133.88 		"/>
		<polygon class="st0" points="223.88,138.57 223.88,138.57 223.88,138.57 		"/>
		<path class="st0" d="M294.86,32.56l13.68-13.68L292.52,2.87L276.5,18.89l16.02,16.02L294.86,32.56z M292.52,12.23l6.65,6.65
			l-6.65,6.65l-6.65-6.65L292.52,12.23z"/>
		<path class="st0" d="M381.6,91.95l-16.02,16.02l16.02,16.02l2.34-2.34l13.68-13.68L381.6,91.95z M381.6,101.32l6.65,6.65
			l-6.65,6.65l-6.65-6.65L381.6,101.32z"/>
		<path class="st0" d="M203.43,91.95l-16.02,16.02l16.02,16.02l2.34-2.34l13.68-13.68L203.43,91.95z M203.43,101.32l6.65,6.65
			l-6.65,6.65l-6.65-6.65L203.43,101.32z"/>
		<path class="st0" d="M276.5,197.06l16.02,16.02l2.34-2.34l13.68-13.68l-16.02-16.02L276.5,197.06z M292.52,203.71l-6.65-6.65
			l6.65-6.65l6.65,6.65L292.52,203.71z"/>
		<path class="st0" d="M366.84,56.31V33.65l-22.65,0v22.65l3.31,0L366.84,56.31z M360.22,40.27v9.41l-9.41,0v-9.41H360.22z"/>
		<path class="st0" d="M344.18,182.29h3.31h19.34v-22.65h-22.65V182.29z M360.22,166.26v9.41h-9.41v-9.41H360.22z"/>
		<path class="st0" d="M240.85,56.31V33.65l-22.65,0l0,22.65h3.31L240.85,56.31z M234.23,40.27v9.41h-9.41v-9.41H234.23z"/>
		<path class="st0" d="M218.2,182.29h3.31h19.34v-22.65H218.2L218.2,182.29z M234.23,166.26v9.41l-9.41,0v-9.41H234.23z"/>
	</g>
	<g>
		<path class="st0" d="M111.79,362.77v-1.32c-1.49-0.88-3.25-2.39-5.26-4.54c-2.02-2.15-4.21-4.8-6.58-7.96
			c-2.37-3.16-4.85-6.69-7.43-10.59c-2.59-3.9-5.2-8.09-7.83-12.56c-2.37-4.03-4.76-7.43-7.17-10.19c-2.41-2.76-4.85-4.95-7.3-6.58
			c-2.46-1.62-4.85-2.78-7.17-3.48c-0.78-0.23-1.54-0.41-2.3-0.57c-4.14-1.34-9.31-1.72-15.29,0.43
			c4.28-4.95,10.27-10.67,16.79-16.17c0.2-0.15,0.4-0.31,0.61-0.46c2.81-2.06,5.59-4.27,8.35-6.64c0.3-0.25,0.59-0.52,0.89-0.78
			c9.66-7.62,14.06-15.73,17.67-21.3c0.68-1,1.36-1.98,2.03-2.9c1.58-2.19,3.51-3.95,5.79-5.26v-1.05c-2.1,0.18-3.95,0.31-5.52,0.4
			c-1.58,0.09-3.2,0.13-4.87,0.13c-1.23,0-2.54-0.04-3.95-0.13c-1.4-0.09-3.07-0.22-5-0.4v1.05c1.84,0.53,3.35,1.34,4.54,2.43
			c0.31,0.29,0.6,0.59,0.86,0.9c1.06,1.61,2.01,5.6-4.34,13.9c-2.74,3.58-5.96,6.77-9.47,9.61c-5,4.05-14.66,12.05-21.95,19.18
			c-3.23,3.16-6.08,6.76-8.46,10.41c-0.01,0-0.01,0.01-0.02,0.01l0,0.02c-2.41,3.69-4.32,7.4-5.63,10.75v-54.72
			c0-1.84,0.09-3.53,0.26-5.06c0.18-1.53,0.57-2.83,1.18-3.88c0.61-1.05,1.49-1.86,2.63-2.43c1.14-0.57,2.67-0.86,4.6-0.86v-1.32
			c-4.03,0.26-7.37,0.46-10,0.59c-2.63,0.13-5.17,0.2-7.63,0.2c-2.28,0-4.67-0.07-7.17-0.2c-2.5-0.13-5.64-0.33-9.4-0.59v1.32
			c1.93,0,3.46,0.31,4.6,0.92c1.14,0.61,2.02,1.47,2.63,2.57c0.61,1.1,1.01,2.41,1.18,3.95c0.17,1.54,0.26,3.27,0.26,5.2v81.69
			c0,1.05,0,2.06,0,3.03c0,0.97-0.09,1.84-0.26,2.63c-0.35,3.16-1.23,5.5-2.63,7.04c-1.4,1.54-3.9,2.3-7.5,2.3v1.32
			c1.66-0.09,3.55-0.17,5.66-0.26c1.75-0.09,3.84-0.15,6.25-0.2c2.41-0.04,5.02-0.07,7.83-0.07c2.81,0,5.74,0.05,8.81,0.13
			c3.07,0.09,6.14,0.22,9.21,0.4v-1.32c-2.19,0-3.97-0.28-5.33-0.85c-1.36-0.57-2.41-1.4-3.16-2.5c-0.75-1.1-1.27-2.5-1.58-4.21
			c-0.31-1.71-0.46-3.75-0.46-6.12v-12.23c0.27-3.2,0.67-6.15,1.18-8.85c0.68-2.5,1.58-5.42,2.65-8.26l0,0.03
			c0,0,3.21-9.2,12.85-7.92c0.22,0.03,0.44,0.09,0.66,0.14c0.7,0.25,1.41,0.54,2.13,0.92c0.43,0.22,0.85,0.49,1.27,0.77
			c1.87,1.33,3.77,3.28,5.62,5.53c2.05,2.74,3.93,5.57,5.61,8.5c1.84,3.2,3.73,6.38,5.66,9.54c0.48,0.82,0.94,1.61,1.41,2.4
			c0.22,0.44,0.33,0.68,0.33,0.68l-0.01-0.12c2.57,4.37,4.98,8.41,7.2,12.1c2.72,4.52,5.17,8.44,7.37,11.77
			c0.96-0.09,2.57-0.13,4.8-0.13c2.24,0,4.6,0,7.1,0c2.5,0,4.89,0.02,7.17,0.07C109.07,362.75,110.73,362.77,111.79,362.77z"/>
		<path class="st0" d="M372.1,362.77v-1.45c-2.46,0-4.3-0.68-5.52-2.04c-1.23-1.36-2.1-3.18-2.63-5.46
			c-0.53-2.28-0.79-4.89-0.79-7.83c0-2.94,0-5.98,0-9.14v-60.07h9.78v-3.39h-9.78v-21.78h-1.44c-0.78,14.56-8.72,21.84-23.82,21.84
			v1.32c2.19,0.18,3.88,0.7,5.06,1.58c1.18,0.88,2.02,2.04,2.5,3.49c0.48,1.45,0.74,3.2,0.79,5.26c0.04,2.06,0.07,4.41,0.07,7.04
			v48.93c0,4.21,0.5,7.72,1.5,10.52c1,2.81,2.55,5.02,4.63,6.64c2.09,1.62,4.74,2.78,7.97,3.49
			C363.65,362.42,367.54,362.77,372.1,362.77z"/>
		<path class="st0" d="M483.31,358.1c-1.27-2.24-1.95-5.68-2.04-10.32V318.7c-0.18-6.93-1.27-13.24-3.29-18.94
			c-1.85-5.22-4.42-9.71-7.7-13.5l0.03-0.02c-8.28-9.74-25.26-17.57-40.98-11.29c-0.07,0.03-0.13,0.06-0.19,0.09
			c-0.92,0.36-1.8,0.77-2.65,1.24c-0.06,0.04-0.12,0.08-0.19,0.12c-10.56,5.58-15.14,14.37-17.11,20.41v-52.3
			c-1.76,0.79-3.73,1.51-5.92,2.17c-2.19,0.66-4.41,1.25-6.64,1.78c-2.24,0.53-4.47,0.97-6.71,1.32c-2.24,0.35-4.27,0.61-6.12,0.79
			v1.31c2.19,0.18,3.86,0.66,5,1.45c1.14,0.79,1.95,1.91,2.43,3.35c0.48,1.45,0.74,3.22,0.79,5.33c0.04,2.1,0.07,4.52,0.07,7.23
			v78.4c-0.09,4.74-0.77,8.22-2.04,10.46c-1.27,2.24-4.06,3.35-8.35,3.35v1.32c3.33-0.17,6.84-0.28,10.52-0.33
			c3.68-0.04,7.23-0.07,10.65-0.07c3.51,0,6.71,0.02,9.6,0.07c2.89,0.05,5.26,0.15,7.1,0.33v-1.32c-4.12,0-6.86-1.05-8.22-3.16
			c-1.36-2.1-2.08-5.39-2.17-9.87v-29.6c0.09-5.09,0.72-10.22,1.91-15.39c0.1-0.42,0.22-0.83,0.33-1.24
			c1.77-5.38,4.09-9.7,6.31-12.98c4.96-7.34,13.6-12.19,22.42-11.06c13.52,2.15,19.11,11.43,20.6,14.47
			c1.12,3.19,1.97,6.65,2.51,10.43c0.79,5.52,1.18,11.23,1.18,17.1v27.62c0,2.37-0.11,4.43-0.33,6.18
			c-0.22,1.75-0.68,3.18-1.38,4.27c-0.7,1.1-1.73,1.91-3.09,2.43c-1.36,0.53-3.22,0.79-5.59,0.79v1.32
			c1.66-0.09,3.55-0.17,5.66-0.26c1.75-0.09,3.84-0.15,6.25-0.2c2.41-0.04,5.02-0.07,7.83-0.07c2.81,0,5.72,0.05,8.75,0.13
			c3.03,0.09,6.07,0.22,9.14,0.4v-1.32C487.37,361.45,484.58,360.34,483.31,358.1z"/>
		<path class="st0" d="M565.06,273.98c-1.93,0-3.88-0.04-5.85-0.13c-1.97-0.09-4.01-0.22-6.12-0.39v0.92
			c5.33,0.57,9.08,1.9,11.28,3.99c-0.02,0-0.03-0.01-0.05-0.01c0,0,1.86,1.71,0.86,7.71l-8.93,22.62c-1.43,1.06-2.7,1.6-3.81,1.6
			c-1.58,0-2.87-0.94-3.88-2.83c-1.01-1.88-1.91-4.23-2.7-7.04c-0.79-2.81-1.6-5.83-2.43-9.08c-0.83-3.24-1.91-6.23-3.22-8.94
			c-1.32-2.72-2.96-4.95-4.93-6.71c-1.97-1.75-4.5-2.5-7.56-2.24c-3.33,0.18-6.31,0.33-8.95,0.46c-2.63,0.13-5.17,0.2-7.63,0.2
			c-2.63,0-5.31-0.07-8.02-0.2c-2.72-0.13-5.79-0.28-9.21-0.46l-0.13,1.05c1.75,0.53,3.42,1.62,5,3.29
			c1.58,1.67,3.33,4.56,5.26,8.68c2.19,5.26,4.49,10.7,6.91,16.31c2.41,5.61,4.8,11.14,7.17,16.57c2.37,5.44,4.6,10.63,6.71,15.59
			c2.1,4.96,4.03,9.36,5.79,13.22c1.58,3.68,2.56,7.04,2.96,10.06c0.4,3.03,0.4,5.79,0,8.29c0,0-8.9,23.62-16.02,26.72
			c-1.39,0.46-2.8,0.71-4.23,0.71c-2.1,0-4.08-0.57-5.92-1.71c-1.84-1.14-3.16-2.85-3.95-5.13h-0.92l-6.18,18.68
			c3.33,0.35,6.97,0.09,10.92-0.79c3.95-0.88,7.58-2.85,10.92-5.92c2.37-2.19,4.41-4.54,6.12-7.04c1.71-2.5,3.33-5.33,4.87-8.48
			c1.53-3.16,7.07-16.69,8.6-20.59c1.53-3.9,3.31-8.35,5.33-13.35c1.58-3.95,3.37-8.48,5.39-13.61c2.02-5.13,4.12-10.46,6.31-15.98
			c2.19-5.52,4.38-11.05,6.58-16.57c2.19-5.53,4.21-10.65,6.05-15.39c1.4-3.24,2.96-5.96,4.67-8.16c1.71-2.19,3.84-4.03,6.38-5.52
			v-0.92c-2.1,0.18-4.27,0.31-6.51,0.39C569.73,273.94,567.43,273.98,565.06,273.98z M544.58,338.24
			c-2.21-5.22-4.46-10.49-6.74-15.85c-2.19-5.09-4.6-10.63-7.23-16.64c-2.63-6.01-5.09-11.73-7.37-17.17
			c-0.61-1.66-1.01-3.29-1.18-4.87c-0.18-1.58-0.07-2.98,0.33-4.21c0.39-1.23,1.1-2.26,2.1-3.09c0,0,4.02-2.48,8.3,0.95
			c0,0,2.14,0.86,5.57,8.35l5.46,18.2c0,0,2.25,6.21,4.07,8.56c1.49,1.93,2.98,3.1,5.88,2.53L544.58,338.24z"/>
		<path class="st0" d="M296.44,289.75c1.67,3.9,2.88,8.27,3.58,13.17c0.79,5.53,1.18,11.23,1.18,17.1v27.62
			c0,2.37-0.11,4.43-0.33,6.18c-0.22,1.76-0.68,3.18-1.38,4.27c-0.7,1.1-1.73,1.91-3.09,2.43c-1.36,0.53-3.22,0.79-5.59,0.79v1.31
			c1.67-0.09,3.55-0.17,5.66-0.26c1.75-0.09,3.83-0.15,6.25-0.2c2.41-0.04,5.02-0.07,7.83-0.07c2.81,0,5.72,0.05,8.75,0.13
			c3.03,0.09,6.07,0.22,9.14,0.39v-1.31c-4.3,0-7.08-1.12-8.35-3.36c-1.27-2.24-1.95-5.68-2.04-10.32v-29.07
			c-0.18-6.93-1.27-13.24-3.29-18.94c-2.02-5.7-4.91-10.54-8.68-14.54c-8.06-9.02-24.04-17.3-39.46-11.02
			c-14.23,6.14-19.06,17.8-20.65,23.89v-33.2c-2.02,5.26-4.69,9.98-8.02,14.14c-1.47,1.83-3.03,3.55-4.67,5.18
			c-0.16,0.1-0.31,0.22-0.46,0.37l-0.25,0.25c-0.09,0.09-0.18,0.18-0.29,0.25c-25.85,19.59-51.01,22.58-51.01,22.58
			c-15.41,2.51-25.54,1.75-32.17-0.11c-10.97-3.08-16.68-17.25-8.95-25.55c0.08-0.09,0.18-0.18,0.27-0.26
			c18.28-15.64,34.65,1.89,34.65,1.89c5.55,6,5.76,17.09,6.03,21.37c2.89-0.56,8.03-1.8,16.38-4.55c-0.66-4.82-2.09-8.93-4.37-12.29
			c-4.18-6.16-10.78-10.28-10.84-10.31c-22.64-12.33-38.66-2.13-38.66-2.13c-11.56,5.96-10.7,16.52-10.7,16.52
			c0,11.99,9.88,16.98,14.69,18.71c-2.87,0.62-5.77,1.38-8.69,2.27c-3.86,1.18-7.35,2.78-10.46,4.8c-3.11,2.02-5.66,4.56-7.63,7.63
			c-1.97,3.07-2.96,6.84-2.96,11.31c0,4.47,0.79,8.33,2.37,11.58c1.58,3.25,3.73,5.92,6.45,8.02c2.72,2.1,5.9,3.66,9.54,4.67
			c3.64,1.01,7.52,1.56,11.64,1.65c0.35,0.09,0.96,0.13,1.84,0.13c8.07-0.17,14.73-2.13,19.99-5.85c5.26-3.73,7.93-6.61,11.65-13.28
			c0,4.21,0.42,4.99,1.42,7.76c1,2.76,2.55,4.96,4.63,6.58c2.09,1.62,4.74,2.79,7.97,3.49c3.22,0.7,7.12,1.05,11.68,1.05v-1.31
			c-2.46,0-4.3-0.7-5.52-2.11c-1.23-1.4-2.1-3.24-2.63-5.53c-0.53-2.28-0.81-4.91-0.86-7.89c-0.05-2.98-0.07-6.05-0.07-9.21
			c0-6.93,0-12.32,0-16.18c0-3.86,0-6.75,0-8.68c0-1.93-0.02-3.24-0.07-3.95c-0.01-0.12-0.01-0.24-0.01-0.36
			c9.62-3.27,18.67-7.79,25.59-11.69c0.89,0.26,1.64,0.61,2.23,1.07c1.06,0.83,1.83,1.95,2.31,3.35c0.49,1.4,0.75,3.14,0.79,5.2
			c0.04,2.06,0.07,4.45,0.07,7.17v35.12c0,2.37-0.11,4.41-0.33,6.12c-0.22,1.71-0.66,3.11-1.32,4.21c-0.66,1.1-1.62,1.93-2.89,2.5
			c-1.27,0.57-3,0.86-5.2,0.86v1.31c2.81-0.17,5.63-0.31,8.48-0.39c2.85-0.09,5.59-0.13,8.22-0.13c3.86,0,7.47,0.05,10.85,0.13
			c3.37,0.09,6.38,0.22,9.01,0.39v-1.31c-2.1,0-3.79-0.26-5.06-0.79c-1.27-0.53-2.24-1.31-2.89-2.37c-0.66-1.05-1.1-2.39-1.32-4.01
			c-0.22-1.62-0.37-3.53-0.46-5.72v-30.38c0.03-2.02,0.18-4.03,0.4-6.05c1.32-10.93,5.11-18.96,8.64-24.3
			c4.86-7.34,13.33-12.19,21.97-11.06C288.61,278.53,294.25,285.92,296.44,289.75z M181.24,326.2c0,6.14-0.73,11.31-2.18,15.52
			c-1.45,4.21-11.23,17.63-25.39,17.63c-6.68,0-11.52-1.89-14.51-5.66c-2.99-3.77-4.48-8.99-4.48-15.65c0-4.3,0.64-7.96,1.91-10.98
			c1.27-3.03,2.99-5.59,5.14-7.7c2.15-2.1,4.64-3.77,7.45-5c2.05-0.89,4.17-1.64,6.36-2.26c10.93,0.8,19.53,0.27,25.69-0.57V326.2z"
			/>
	</g>
	<g>
		<path class="st1" d="M165.26,403.94h-2.66v-22.84h12.73v2.36h-10.08v8.36h9.47v2.36h-9.47V403.94z"/>
		<path class="st1" d="M207.56,403.94l-2.84-7.27h-9.16l-2.81,7.27h-2.69l9.03-22.94h2.23l8.98,22.94H207.56z M203.89,394.28
			l-2.66-7.08c-0.34-0.9-0.7-1.99-1.06-3.3c-0.23,1-0.56,2.1-0.98,3.3l-2.69,7.08H203.89z"/>
		<path class="st1" d="M240.42,397.86c0,2.01-0.73,3.58-2.19,4.7c-1.46,1.12-3.44,1.69-5.94,1.69c-2.71,0-4.79-0.35-6.25-1.05v-2.56
			c0.94,0.4,1.96,0.71,3.06,0.94c1.1,0.23,2.2,0.34,3.28,0.34c1.77,0,3.1-0.34,4-1.01c0.9-0.67,1.34-1.61,1.34-2.8
			c0-0.79-0.16-1.44-0.48-1.95c-0.32-0.5-0.85-0.97-1.59-1.4c-0.75-0.43-1.88-0.91-3.4-1.45c-2.12-0.76-3.64-1.66-4.55-2.7
			c-0.91-1.04-1.37-2.4-1.37-4.08c0-1.76,0.66-3.16,1.98-4.2c1.32-1.04,3.07-1.56,5.25-1.56c2.27,0,4.36,0.42,6.27,1.25l-0.83,2.31
			c-1.89-0.79-3.72-1.19-5.5-1.19c-1.41,0-2.51,0.3-3.3,0.91c-0.79,0.6-1.19,1.44-1.19,2.52c0,0.79,0.15,1.44,0.44,1.95
			c0.29,0.51,0.78,0.97,1.48,1.39c0.69,0.42,1.75,0.89,3.18,1.4c2.4,0.85,4.04,1.77,4.95,2.75
			C239.97,395.03,240.42,396.3,240.42,397.86z"/>
		<path class="st1" d="M276.52,403.94h-2.66v-10.75h-12.03v10.75h-2.66v-22.84h2.66v9.72h12.03v-9.72h2.66V403.94z"/>
		<path class="st1" d="M296.86,403.94v-22.84h2.66v22.84H296.86z"/>
		<path class="st1" d="M339.69,392.48c0,3.66-0.92,6.53-2.77,8.62c-1.85,2.09-4.42,3.14-7.71,3.14c-3.36,0-5.96-1.03-7.79-3.09
			c-1.83-2.06-2.74-4.96-2.74-8.71c0-3.72,0.92-6.6,2.75-8.65c1.83-2.05,4.44-3.07,7.81-3.07c3.28,0,5.84,1.04,7.69,3.12
			C338.77,385.94,339.69,388.82,339.69,392.48z M321.49,392.48c0,3.09,0.66,5.44,1.98,7.04c1.32,1.6,3.23,2.4,5.74,2.4
			c2.53,0,4.44-0.8,5.73-2.39c1.29-1.59,1.94-3.94,1.94-7.05c0-3.07-0.64-5.4-1.93-6.99c-1.29-1.59-3.19-2.38-5.71-2.38
			c-2.53,0-4.46,0.8-5.77,2.4C322.15,387.11,321.49,389.43,321.49,392.48z"/>
		<path class="st1" d="M376.71,403.94h-3.03l-12.48-19.17h-0.12c0.17,2.25,0.25,4.31,0.25,6.19v12.98h-2.45v-22.84h3l12.45,19.09
			h0.12c-0.02-0.28-0.07-1.18-0.14-2.71c-0.07-1.53-0.1-2.62-0.08-3.27v-13.11h2.48V403.94z"/>
		<path class="st1" d="M409.96,397.86c0,2.01-0.73,3.58-2.19,4.7c-1.46,1.12-3.44,1.69-5.94,1.69c-2.71,0-4.79-0.35-6.25-1.05v-2.56
			c0.94,0.4,1.96,0.71,3.06,0.94c1.1,0.23,2.2,0.34,3.28,0.34c1.77,0,3.1-0.34,4-1.01c0.9-0.67,1.34-1.61,1.34-2.8
			c0-0.79-0.16-1.44-0.48-1.95c-0.32-0.5-0.85-0.97-1.59-1.4c-0.75-0.43-1.88-0.91-3.4-1.45c-2.12-0.76-3.64-1.66-4.55-2.7
			c-0.91-1.04-1.37-2.4-1.37-4.08c0-1.76,0.66-3.16,1.98-4.2c1.32-1.04,3.07-1.56,5.25-1.56c2.27,0,4.36,0.42,6.27,1.25l-0.83,2.31
			c-1.89-0.79-3.72-1.19-5.5-1.19c-1.41,0-2.51,0.3-3.3,0.91c-0.79,0.6-1.19,1.44-1.19,2.52c0,0.79,0.15,1.44,0.44,1.95
			c0.29,0.51,0.78,0.97,1.48,1.39c0.69,0.42,1.75,0.89,3.18,1.4c2.4,0.85,4.04,1.77,4.95,2.75
			C409.51,395.03,409.96,396.3,409.96,397.86z"/>
	</g>
</g>
</svg>
